# xmcd
#
# Track frame offsets: 
#        150
#        16255
#        28807
#        40112
#        51306
#        65955
#        77434
#        89115
#        102489
#        112937
#        125956
#        139630
#
# Disc length: 2064 seconds
#
# Revision: 0
# Processed by: cddbd v1.5.2PL0 Copyright (c) Steve Scherf et al.
# Submitted via: ExactAudioCopy v1.0b1
#
DISCID=aa080e0c
DTITLE=Big Joe Williams - Old Saw Mill Blues
DYEAR=2010
DGENRE=Blues
TTITLE0=So Soon I'll Be Goin' My Way Back Home
TTITLE1=Shake 'Em On Down
TTITLE2=Saturday Night Jump
TTITLE3=Jinx Blues
TTITLE4=Pick A Pickle
TTITLE5=Ramblin' And Wanderin' Blues
TTITLE6=Old Saw Mill Blues
TTITLE7=Don't The Apples Look Mellow Hangin'
TTITLE8=El Paso Blues
TTITLE9=Back Home Blues
TTITLE10=Don't You Leave Me Here
TTITLE11=Shaggy Hound Blues
EXTD=
EXTT0=
EXTT1=
EXTT2=
EXTT3=
EXTT4=
EXTT5=
EXTT6=
EXTT7=
EXTT8=
EXTT9=
EXTT10=
EXTT11=
PLAYORDER=
